<svg width="309" height="309" viewBox="0 0 309 309" fill="none" xmlns="http://www.w3.org/2000/svg">
<circle cx="154.5" cy="154.5" r="154.5" fill="black"/>
<path d="M150.355 44.6074C135.954 45.9254 123.75 56.1766 119.552 70.5283C118.722 73.4084 118.478 75.8491 118.283 83.2202L118.039 92.3975H112.083C108.569 92.3975 104.908 92.6904 103.053 93.1297C94.2171 95.2288 87.0413 102.502 85.3815 110.947C84.3564 116.219 73.2266 210.14 73.2266 213.459C73.2266 223.222 80.2071 232.351 89.7749 235.133C92.1668 235.816 99.2939 235.914 154.26 235.914C209.226 235.914 216.353 235.816 218.745 235.133C228.312 232.351 235.293 223.222 235.293 213.459C235.293 210.14 224.163 116.219 223.138 110.947C221.478 102.502 214.302 95.2288 205.467 93.1297C203.612 92.6904 199.951 92.3975 196.436 92.3975H190.481L190.237 83.2202C190.041 75.8491 189.797 73.4084 188.967 70.5283C185.404 58.2757 176.275 49.1472 164.267 45.8278C159.337 44.461 155.724 44.1681 150.355 44.6074ZM160.508 53.3942C167.001 54.6634 175.397 61.0093 178.423 67.0136C181.352 72.7738 181.694 74.4823 181.938 83.7084L182.182 92.3975H154.26H126.337L126.533 83.7084C126.777 74.5311 127.167 72.8226 129.999 67.2088C131.707 63.8894 135.808 59.4472 139.322 57.2018C145.766 53.0036 152.21 51.8321 160.508 53.3942ZM118.137 107.725C118.137 114.364 118.185 114.852 119.259 116.073C120.724 117.781 123.555 117.879 125.264 116.268C126.386 115.194 126.435 114.95 126.435 107.921V100.696H154.26H182.084V107.921C182.084 114.95 182.133 115.194 183.256 116.268C184.964 117.879 187.796 117.781 189.26 116.073C190.334 114.852 190.383 114.413 190.383 107.677V100.598L197.119 100.794C203.173 100.989 204.051 101.135 206.59 102.307C208.103 103.039 210.104 104.504 211.081 105.578C214.839 109.727 214.4 107.188 220.99 161.227C225.139 195.153 226.994 211.799 226.848 213.996C226.506 219.659 223.382 223.954 217.719 226.59L215.035 227.86H154.26H93.4849L90.8 226.59C85.1375 223.954 82.0133 219.659 81.6716 213.996C81.5251 211.799 83.3801 195.153 87.5294 161.227C94.1195 107.237 93.6801 109.727 97.4389 105.578C99.1962 103.674 102.369 101.819 105.152 101.135C105.982 100.94 109.252 100.794 112.425 100.745L118.137 100.696V107.725Z" fill="#F0F0F0"/>
</svg>
